<svg width="20" height="20" viewBox="0 0 28 28" fill="none" xmlns="http://www.w3.org/2000/svg">
<path d="M11.6667 7V5.83333H16.3333V7H18.6667V5.83333C18.6652 4.54527 17.6214 3.50147 16.3333 3.5H11.6667C10.3786 3.50147 9.33481 4.54527 9.33334 5.83333V7H11.6667Z" fill="#6563FF"/>
<path d="M10.5 17.5C9.85585 17.5002 9.33351 16.9781 9.33334 16.3339C9.33334 16.3337 9.33334 16.3335 9.33334 16.3333V14C9.33334 13.3557 9.85567 12.8333 10.5 12.8333C11.1443 12.8333 11.6667 13.3557 11.6667 14V16.3333C11.6668 16.9775 11.1448 17.4998 10.5006 17.5C10.5004 17.5 10.5002 17.5 10.5 17.5ZM17.5 17.5C16.8558 17.5002 16.3335 16.9781 16.3333 16.3339C16.3333 16.3337 16.3333 16.3335 16.3333 16.3333V14C16.3333 13.3557 16.8557 12.8333 17.5 12.8333C18.1443 12.8333 18.6667 13.3557 18.6667 14V16.3333C18.6668 16.9775 18.1448 17.4998 17.5006 17.5C17.5004 17.5 17.5002 17.5 17.5 17.5Z" fill="#C1C0FF"/>
<path d="M23.3333 7H4.66668C3.37801 7 2.33334 8.04467 2.33334 9.33333V12.8333C2.33334 14.122 3.37801 15.1667 4.66668 15.1667H9.33334V14C9.33334 13.3557 9.85567 12.8333 10.5 12.8333C11.1443 12.8333 11.6667 13.3557 11.6667 14V15.1667H16.3333V14C16.3333 13.3557 16.8557 12.8333 17.5 12.8333C18.1444 12.8333 18.6667 13.3557 18.6667 14V15.1667H23.3333C24.622 15.1667 25.6667 14.122 25.6667 12.8333V9.33333C25.6667 8.04467 24.622 7 23.3333 7Z" fill="#A2A1FF"/>
<path d="M23.3333 15.1667H18.6667V16.3333C18.6667 16.9777 18.1444 17.5 17.5 17.5C16.8557 17.5 16.3333 16.9777 16.3333 16.3333V15.1667H11.6667V16.3333C11.6667 16.9777 11.1443 17.5 10.5 17.5C9.85567 17.5 9.33334 16.9777 9.33334 16.3333V15.1667H4.66668C3.37801 15.1667 2.33334 14.122 2.33334 12.8333V22.1667C2.33334 23.4553 3.37801 24.5 4.66668 24.5H23.3333C24.622 24.5 25.6667 23.4553 25.6667 22.1667V12.8333C25.6667 14.122 24.622 15.1667 23.3333 15.1667Z" fill="#6563FF"/>
</svg>
