<svg width="20" height="20" viewBox="0 0 21 21" fill="none" xmlns="http://www.w3.org/2000/svg">
<path d="M10.0012 20.8021H1.00123C0.803458 20.8021 0.61013 20.7411 0.445692 20.6268C0.281254 20.5125 0.153093 20.3501 0.0774153 20.1601C0.00173792 19.97 -0.0180561 19.7609 0.0205363 19.5592C0.0591286 19.3575 0.154374 19.1721 0.294227 19.0267L2.25807 16.9842C0.820843 15.1558 0.0246963 12.8731 0.000565124 10.5116C-0.023566 8.15004 0.725755 5.85028 2.12529 3.99052C3.52483 2.13075 5.49125 0.821709 7.70115 0.278688C9.91105 -0.264333 12.2328 -0.00900347 14.2847 1.00269C16.3365 2.01437 17.9962 3.72218 18.9908 5.84524C19.9855 7.96829 20.2558 10.3802 19.7573 12.6842C19.2588 14.9883 18.0213 17.0473 16.2482 18.5227C14.4751 19.9981 12.272 20.8019 10.0012 20.8021Z" fill="#A2A1FF"/>
</svg>
