<svg xmlns="http://www.w3.org/2000/svg" viewBox="0 0 135 40"><path d="M-10-10h155v60H-10v-60z" fill="none"/><path d="M5 0h125c2.8 0 5 2.2 5 5v30c0 2.8-2.2 5-5 5H5c-2.8 0-5-2.2-5-5V5c0-2.8 2.2-5 5-5z"/><path d="M130 .8c2.3 0 4.2 1.9 4.2 4.2v30c0 2.3-1.9 4.2-4.2 4.2H5C2.7 39.2.8 37.3.8 35V5C.8 2.7 2.7.8 5 .8h125m0-.8H5C2.2 0 0 2.2 0 5v30c0 2.8 2.2 5 5 5h125c2.8 0 5-2.2 5-5V5c0-2.8-2.2-5-5-5z" fill="#a6a6a6"/><path d="M68.1 21.8c-2.3 0-4.2 1.9-4.2 4.3 0 2.3 1.9 4.2 4.3 4.2 2.3 0 4.2-1.9 4.2-4.2 0-2.3-1.8-4.2-4.1-4.3-.1-.1-.1-.1-.2 0zm0 6.8c-1.4.1-2.7-1-2.8-2.4-.1-1.4 1-2.7 2.4-2.8 1.4-.1 2.7 1 2.8 2.4v.2c.1 1.4-.9 2.5-2.4 2.6.1 0 .1 0 0 0zm-9.3-6.8c-2.3 0-4.2 1.9-4.2 4.3 0 2.3 1.9 4.2 4.3 4.2 2.3 0 4.2-1.9 4.2-4.2 0-2.3-1.8-4.2-4.1-4.3-.1-.1-.1-.1-.2 0zm0 6.8c-1.4.1-2.7-1-2.8-2.4-.1-1.4 1-2.7 2.4-2.8 1.4-.1 2.7 1 2.8 2.4v.2c.1 1.4-1 2.5-2.4 2.6.1 0 0 0 0 0zm-11.1-5.5v1.8H52c-.1.8-.4 1.6-1 2.3-.9.9-2.1 1.4-3.3 1.3-2.7 0-4.8-2.1-4.8-4.8s2.1-4.8 4.8-4.8c1.2 0 2.4.4 3.3 1.3l1.3-1.3c-1.2-1.2-2.8-1.9-4.5-1.9-3.6-.1-6.7 2.7-6.9 6.3-.1 3.6 2.7 6.7 6.3 6.9h.5c1.7.1 3.4-.6 4.6-1.8 1-1.2 1.6-2.7 1.6-4.2 0-.4 0-.8-.1-1.1h-6.1zm45.4 1.4c-.5-1.6-2-2.6-3.6-2.7-2.2 0-4 1.8-4 4v.3c0 2.3 1.8 4.2 4.1 4.2h.2c1.4 0 2.8-.7 3.5-1.9l-1.4-1c-.4.7-1.2 1.2-2.1 1.2-.9 0-1.7-.5-2.1-1.3l5.7-2.3-.3-.5zm-5.9 1.4c-.1-1.3.9-2.4 2.2-2.5.7 0 1.3.3 1.6.9l-3.8 1.6zM82.6 30h1.9V17.5h-1.9V30zm-3-7.3c-.6-.6-1.5-1-2.3-1-2.3.1-4.2 2.1-4 4.5.1 2.2 1.9 3.9 4 4 .9 0 1.7-.4 2.2-1h.1v.6c0 1.6-.9 2.5-2.3 2.5-1 0-1.8-.6-2.1-1.5l-1.6.7c.6 1.5 2.1 2.5 3.8 2.5 2.2 0 4-1.3 4-4.4V22h-1.7v.7zm-2.2 5.9c-1.4-.1-2.5-1.4-2.4-2.8.1-1.3 1.1-2.2 2.4-2.4 1.3.1 2.3 1.2 2.3 2.5v.1c.1 1.3-.9 2.5-2.2 2.6h-.1zm24.4-11.1h-4.5V30h1.9v-4.7h2.6c2.1.2 4-1.5 4.2-3.6.2-2.1-1.5-4-3.6-4.2h-.6zm0 6h-2.6v-4.3h2.7c1.2 0 2.1 1 2.1 2.1s-1 2.2-2.2 2.2zm11.5-1.8c-1.4-.1-2.7.7-3.3 1.9l1.7.7c.3-.6 1-1 1.7-.9 1-.1 1.9.6 2 1.6v.1c-.6-.3-1.3-.5-1.9-.5-1.8 0-3.6 1-3.6 2.8.1 1.6 1.4 2.8 3 2.8h.1c1 .1 1.9-.4 2.4-1.2h.1v1h1.8v-4.8c-.1-2.2-1.8-3.5-4-3.5zm-.2 6.8c-.6 0-1.5-.3-1.5-1.1 0-1 1.1-1.3 2-1.3.6 0 1.2.1 1.7.4-.1 1.2-1 2.1-2.2 2zm10.6-6.5l-2.1 5.4h-.1l-2.2-5.4h-2l3.3 7.6-1.9 4.2h1.9l5.1-11.8h-2zm-16.8 8h1.9V17.5h-1.9V30z" fill="#fff"/><linearGradient id="a" gradientUnits="userSpaceOnUse" x1="21.802" y1="-183.287" x2="5.022" y2="-166.507" gradientTransform="translate(0 192)"><stop offset="0" stop-color="#00a0ff"/><stop offset=".01" stop-color="#00a1ff"/><stop offset=".26" stop-color="#00beff"/><stop offset=".51" stop-color="#00d2ff"/><stop offset=".76" stop-color="#00dfff"/><stop offset="1" stop-color="#00e3ff"/></linearGradient><path d="M10.4 7.5c-.3.4-.5.9-.4 1.4V31c0 .5.1 1 .5 1.4l.1.1L23 20.1v-.3L10.4 7.5z" fill="url(#a)"/><linearGradient id="b" gradientUnits="userSpaceOnUse" x1="33.83" y1="-172" x2="9.64" y2="-172" gradientTransform="translate(0 192)"><stop offset="0" stop-color="#ffe000"/><stop offset=".41" stop-color="#ffbd00"/><stop offset=".78" stop-color="orange"/><stop offset="1" stop-color="#ff9c00"/></linearGradient><path d="M27 24.3l-4.1-4.1v-.3l4.1-4.1h.1l4.9 2.8c1.4.8 1.4 2.1 0 2.9l-4.9 2.8H27z" fill="url(#b)"/><linearGradient id="c" gradientUnits="userSpaceOnUse" x1="24.828" y1="-169.702" x2="2.067" y2="-146.952" gradientTransform="translate(0 192)"><stop offset="0" stop-color="#ff3a44"/><stop offset="1" stop-color="#c31162"/></linearGradient><path d="M27.1 24.2L22.9 20 10.4 32.5c.6.5 1.5.5 2.1.1l14.6-8.4" fill="url(#c)"/><linearGradient id="d" gradientUnits="userSpaceOnUse" x1="7.298" y1="-191.817" x2="17.457" y2="-181.657" gradientTransform="translate(0 192)"><stop offset="0" stop-color="#32a071"/><stop offset=".07" stop-color="#2da771"/><stop offset=".48" stop-color="#15cf74"/><stop offset=".8" stop-color="#06e775"/><stop offset="1" stop-color="#00f076"/></linearGradient><path d="M27.1 15.8L12.5 7.5c-.6-.5-1.5-.5-2.1 0L22.9 20l4.2-4.2z" fill="url(#d)"/><path d="M27 24.1l-14.5 8.2c-.6.4-1.4.4-2 0l-.1.1.1.1c.6.4 1.4.4 2 0l14.6-8.3-.1-.1z" opacity=".2"/><path d="M10.4 32.3c-.3-.4-.5-.9-.5-1.4v.2c0 .5.1 1 .5 1.4v-.2zm21.6-11l-5 2.8.1.1 4.9-2.8c.6-.3.9-.8 1-1.4-.1.6-.5 1-1 1.3z" opacity=".12"/><path d="M12.5 7.6L32 18.7c.5.3.9.7 1 1.3-.1-.6-.4-1.2-1-1.4L12.5 7.5c-1.4-.8-2.5-.1-2.5 1.4V9c0-1.5 1.1-2.2 2.5-1.4z" opacity=".25" fill="#fff"/><path d="M43.7 12.7H43v-5h-1.6V7h3.9v.7h-1.6v5zm2.7-1.7l-.6 1.7h-.7L47 7.3h.8l1.8 5.4h-.7l-.6-1.7h-1.9zm1.8-.5L47.7 9c-.1-.4-.2-.7-.3-1-.1.3-.2.6-.3 1l-.5 1.6 1.6-.1zm-1-3.6c.1-.3.4-.4.4-.7 0-.1-.1-.2-.2-.3 0 0 0 0 0 0-.2 0-.3.1-.4.3l-.3-.2c.1-.3.4-.5.8-.5.3 0 .6.2.7.6 0 0 0 0 0 0 0 .4-.4.5-.6.9l-.4-.1zm3.3 5.8V7h.7v5.7h-.7zm3.6 0V7h.9l2.8 4.5V7h.7v5.7h-.8L54.9 8v4.7h-.8zM64.5 10c.2 1.4-.8 2.6-2.2 2.8H62c-1.4 0-2.5-1.1-2.4-2.5v-.2c-.1-1.4.9-2.7 2.3-2.8h.2c1.4 0 2.4 1.1 2.4 2.5v.2zm-4.2 0c0 1.1.6 2.2 1.7 2.2s1.7-1 1.7-2.2c0-1.1-.6-2.2-1.7-2.2s-1.7 1.1-1.7 2.2zm2-4l.8 1h-.6l-.5-.6-.5.6h-.6l.8-.9.6-.1zm-.7 7.7c0-.2.2-.4.4-.4s.4.2.4.4-.2.4-.4.4-.4-.1-.4-.4h0zm3.9-1V7h.7v5.7h-.7zm3.7 0V7H71c.8 0 1.5.3 2.1.8.5.6.8 1.3.8 2.1s-.3 1.5-.8 2c-.6.5-1.3.8-2.1.8h-1.8zm.7-.7h1c.6 0 1.1-.2 1.6-.6.4-.4.6-1 .6-1.6.1-1.1-.7-2.1-1.8-2.2H70V12zm7 .8c-.6 0-1.1-.2-1.5-.6-.4-.4-.6-1-.6-1.6V7h.7v3.6c0 .4.1.8.4 1.1.6.6 1.5.6 2.1 0 .2-.3.4-.7.4-1.1V7h.6v3.6c0 .6-.2 1.2-.6 1.6-.4.5-.9.7-1.5.6zm3.4-.1V7h.9l2.8 4.5V7h.7v5.7h-.8L81 8v4.7h-.7zm11.2-2.6c0 .7-.2 1.4-.7 1.9-.5.6-1.3.9-2.1.9-1.7 0-3-1.4-3-3 0-.8.3-1.5.9-2.1.6-.6 1.3-.9 2.1-.9.4 0 .8.1 1.2.2.3.1.7.4.9.6l-.5.5c-.4-.5-1-.7-1.6-.7-1.3.1-2.3 1.1-2.2 2.4 0 .6.3 1.1.7 1.5.9.8 2.3.8 3.2 0 .3-.3.5-.7.5-1.2h-2.1v-.6h2.8c-.1.2-.1.3-.1.5h0zm4.6 2.6h-.7v-5h-1.6V7h3.9v.7h-1.6v5zm2.4 0V7h2c.5 0 .9.2 1.3.5.7.6.7 1.6.1 2.3-.3.3-.6.5-1 .6l1.6 2.3h-.9l-1.5-2.3h-.8v2.4h-.8zm.8-3h1.2c.3 0 .6-.1.8-.3.2-.2.3-.5.3-.7 0-.3-.1-.5-.3-.7-.2-.2-.5-.3-.7-.3h-1.2l-.1 2zm7.4-2h-2.6v1.8h2.3v.7h-2.3V12h2.6v.7h-3.3V7h3.3v.7zm-2.8-1.2l.8-.9h.6l.8.9h-.7L105 6l-.4.5h-.7zm3.9 6.2V7h.9l2.8 4.5V7h.7v5.7h-.8L108.5 8v4.7h-.7z" fill="#fff" stroke="#fff" stroke-width=".2" stroke-miterlimit="10"/></svg>