<svg width="120" height="40" viewBox="0 0 120 40" fill="none" xmlns="http://www.w3.org/2000/svg">
<path d="M0 10.5C0 7.23841 0 5.60761 0.532843 4.32122C1.2433 2.60602 2.60602 1.2433 4.32122 0.532843C5.60761 0 7.23841 0 10.5 0H109.5C112.762 0 114.392 0 115.679 0.532843C117.394 1.2433 118.757 2.60602 119.467 4.32122C120 5.60761 120 7.23841 120 10.5V29.5C120 32.7616 120 34.3924 119.467 35.6788C118.757 37.394 117.394 38.7567 115.679 39.4672C114.392 40 112.762 40 109.5 40H10.5C7.23841 40 5.60761 40 4.32122 39.4672C2.60602 38.7567 1.2433 37.394 0.532843 35.6788C0 34.3924 0 32.7616 0 29.5V10.5Z" fill="#0C0D10"/>
<path d="M81.5259 19.2009V21.4919H80.0898V22.9944H81.5259V28.0994C81.5259 29.8425 82.3145 30.5398 84.2983 30.5398C84.647 30.5398 84.979 30.4983 85.2695 30.4485V28.9626C85.0205 28.9875 84.8628 29.0042 84.5889 29.0042C83.7007 29.0042 83.3106 28.5891 83.3106 27.6428V22.9944H85.2695V21.4919H83.3106V19.2009H81.5259Z" fill="white"/>
<path d="M90.3234 30.6643C92.963 30.6643 94.5817 28.8962 94.5817 25.9661C94.5817 23.0525 92.9547 21.2761 90.3234 21.2761C87.6837 21.2761 86.0568 23.0525 86.0568 25.9661C86.0568 28.8962 87.6754 30.6643 90.3234 30.6643ZM90.3234 29.0789C88.7711 29.0789 87.8996 27.9417 87.8996 25.9661C87.8996 24.0071 88.7711 22.8616 90.3234 22.8616C91.8673 22.8616 92.7472 24.0071 92.7472 25.9661C92.7472 27.9334 91.8673 29.0789 90.3234 29.0789Z" fill="white"/>
<path d="M95.9666 30.49H97.7513V25.1526C97.7513 23.8826 98.7058 23.0276 100.059 23.0276C100.374 23.0276 100.906 23.0857 101.055 23.1355V21.3757C100.864 21.3259 100.524 21.301 100.258 21.301C99.0794 21.301 98.075 21.9485 97.8177 22.8367H97.6848V21.4504H95.9666V30.49Z" fill="white"/>
<path d="M105.486 22.7952C106.806 22.7952 107.669 23.7166 107.711 25.136H103.145C103.245 23.7249 104.166 22.7952 105.486 22.7952ZM107.703 28.0496C107.371 28.7551 106.632 29.1453 105.553 29.1453C104.125 29.1453 103.204 28.1409 103.145 26.5554V26.4558H109.529V25.8333C109.529 22.9944 108.01 21.2761 105.495 21.2761C102.946 21.2761 101.328 23.1106 101.328 25.9993C101.328 28.8879 102.913 30.6643 105.503 30.6643C107.57 30.6643 109.014 29.6682 109.421 28.0496H107.703Z" fill="white"/>
<path d="M69.8223 27.1518C69.96 29.3715 71.8097 30.7911 74.5628 30.7911C77.5052 30.7911 79.3464 29.3027 79.3464 26.9281C79.3464 25.0612 78.2968 24.0288 75.7501 23.4351L74.3822 23.0996C72.7647 22.721 72.1108 22.2134 72.1108 21.3272C72.1108 20.2088 73.126 19.4775 74.6489 19.4775C76.0943 19.4775 77.0923 20.1916 77.2729 21.3359H79.1485C79.0367 19.2452 77.1955 17.774 74.6747 17.774C71.9646 17.774 70.1578 19.2452 70.1578 21.4563C70.1578 23.2802 71.1817 24.3643 73.4272 24.8891L75.0274 25.2763C76.6707 25.6634 77.3934 26.2313 77.3934 27.1776C77.3934 28.2789 76.2577 29.079 74.7091 29.079C73.0486 29.079 71.8957 28.3305 71.7323 27.1518H69.8223Z" fill="white"/>
<path d="M51.335 21.301C50.1064 21.301 49.0439 21.9153 48.4961 22.9446H48.3633V21.4504H46.645V33.4949H48.4297V29.1204H48.5708C49.0439 30.075 50.0649 30.6394 51.3516 30.6394C53.6343 30.6394 55.0869 28.8381 55.0869 25.9661C55.0869 23.094 53.6343 21.301 51.335 21.301ZM50.8286 29.0374C49.3345 29.0374 48.3965 27.8586 48.3965 25.9744C48.3965 24.0818 49.3345 22.9031 50.8369 22.9031C52.3477 22.9031 53.2524 24.0569 53.2524 25.9661C53.2524 27.8835 52.3477 29.0374 50.8286 29.0374Z" fill="white"/>
<path d="M61.3318 21.301C60.1032 21.301 59.0407 21.9153 58.4929 22.9446H58.3601V21.4504H56.6418V33.4949H58.4265V29.1204H58.5676C59.0407 30.075 60.0617 30.6394 61.3484 30.6394C63.6311 30.6394 65.0837 28.8381 65.0837 25.9661C65.0837 23.094 63.6311 21.301 61.3318 21.301ZM60.8254 29.0374C59.3313 29.0374 58.3933 27.8586 58.3933 25.9744C58.3933 24.0818 59.3313 22.9031 60.8337 22.9031C62.3445 22.9031 63.2492 24.0569 63.2492 25.9661C63.2492 27.8835 62.3445 29.0374 60.8254 29.0374Z" fill="white"/>
<path d="M43.443 30.49H45.4907L41.0082 18.0751H38.9348L34.4523 30.49H36.4312L37.5754 27.1948H42.3074L43.443 30.49ZM39.8726 20.3292H40.0188L41.817 25.5774H38.0658L39.8726 20.3292Z" fill="white"/>
<path d="M24.769 20.3008C24.7907 18.6198 25.6934 17.0292 27.1256 16.1488C26.2221 14.8584 24.7088 14.0403 23.1344 13.9911C21.4552 13.8148 19.8272 14.9959 18.9715 14.9959C18.0992 14.9959 16.7817 14.0086 15.363 14.0378C13.5137 14.0975 11.7898 15.1489 10.8901 16.7656C8.95607 20.1141 10.3987 25.0351 12.2513 27.7417C13.1782 29.0671 14.2615 30.5475 15.6789 30.495C17.066 30.4375 17.584 29.6105 19.2583 29.6105C20.9171 29.6105 21.4031 30.495 22.8493 30.4616C24.3377 30.4375 25.2754 29.1304 26.1698 27.7925C26.8358 26.8481 27.3483 25.8044 27.6882 24.7C25.9391 23.9602 24.771 22.2 24.769 20.3008Z" fill="white"/>
<path d="M22.0373 12.2111C22.8489 11.2369 23.2487 9.98469 23.1518 8.72046C21.912 8.85068 20.7668 9.44324 19.9443 10.3801C19.14 11.2954 18.7214 12.5255 18.8006 13.7415C20.0408 13.7542 21.2601 13.1777 22.0373 12.2111Z" fill="white"/>
<path d="M39.9199 10.8311C39.1159 10.5999 38.5299 10.3167 38.1621 9.98145C37.7975 9.6429 37.6152 9.22624 37.6152 8.73145C37.6152 8.17155 37.8382 7.70931 38.2842 7.34473C38.7334 6.97689 39.3161 6.79297 40.0322 6.79297C40.5205 6.79297 40.9551 6.88737 41.3359 7.07617C41.7201 7.26497 42.0163 7.52539 42.2246 7.85742C42.4362 8.18945 42.542 8.55241 42.542 8.94629H41.5996C41.5996 8.5166 41.4629 8.17969 41.1895 7.93555C40.916 7.68815 40.5303 7.56445 40.0322 7.56445C39.57 7.56445 39.2087 7.66699 38.9482 7.87207C38.6911 8.07389 38.5625 8.35547 38.5625 8.7168C38.5625 9.00651 38.6846 9.25228 38.9287 9.4541C39.1761 9.65267 39.5944 9.83496 40.1836 10.001C40.776 10.167 41.2383 10.3509 41.5703 10.5527C41.9056 10.7513 42.153 10.984 42.3125 11.251C42.4753 11.5179 42.5566 11.832 42.5566 12.1934C42.5566 12.7695 42.332 13.2318 41.8828 13.5801C41.4336 13.9251 40.833 14.0977 40.0811 14.0977C39.5928 14.0977 39.137 14.0049 38.7139 13.8193C38.2907 13.6305 37.9635 13.3734 37.7324 13.0479C37.5046 12.7223 37.3906 12.3529 37.3906 11.9395H38.333C38.333 12.3691 38.4909 12.7093 38.8066 12.96C39.1257 13.2074 39.5505 13.3311 40.0811 13.3311C40.5758 13.3311 40.9551 13.2301 41.2188 13.0283C41.4824 12.8265 41.6143 12.5514 41.6143 12.2031C41.6143 11.8548 41.4922 11.5863 41.248 11.3975C41.0039 11.2054 40.5612 11.0166 39.9199 10.8311ZM46.8828 14C46.8307 13.8958 46.7884 13.7103 46.7559 13.4434C46.3359 13.8796 45.8346 14.0977 45.252 14.0977C44.7311 14.0977 44.3031 13.9512 43.9678 13.6582C43.6357 13.362 43.4697 12.9876 43.4697 12.5352C43.4697 11.985 43.6781 11.5586 44.0947 11.2559C44.5146 10.9499 45.1038 10.7969 45.8623 10.7969H46.7412V10.3818C46.7412 10.0661 46.6468 9.81543 46.458 9.62988C46.2692 9.44108 45.9909 9.34668 45.623 9.34668C45.3008 9.34668 45.0306 9.42806 44.8125 9.59082C44.5944 9.75358 44.4854 9.95052 44.4854 10.1816H43.5771C43.5771 9.91797 43.6699 9.66406 43.8555 9.41992C44.0443 9.17253 44.2982 8.97721 44.6172 8.83398C44.9395 8.69076 45.2926 8.61914 45.6768 8.61914C46.2855 8.61914 46.7624 8.77214 47.1074 9.07812C47.4525 9.38086 47.6315 9.79915 47.6445 10.333V12.7646C47.6445 13.2497 47.7064 13.6354 47.8301 13.9219V14H46.8828ZM45.3838 13.3115C45.667 13.3115 45.9355 13.2383 46.1895 13.0918C46.4434 12.9453 46.6273 12.7549 46.7412 12.5205V11.4365H46.0332C44.9264 11.4365 44.373 11.7604 44.373 12.4082C44.373 12.6914 44.4674 12.9128 44.6562 13.0723C44.8451 13.2318 45.0876 13.3115 45.3838 13.3115ZM47.2295 6.92969C47.2295 7.23893 47.0928 7.48633 46.8193 7.67188C46.5459 7.85742 46.1895 7.9502 45.75 7.9502C45.3073 7.9502 44.9492 7.85742 44.6758 7.67188C44.4023 7.48633 44.2656 7.23893 44.2656 6.92969H45.0078C45.0078 7.10872 45.0713 7.2487 45.1982 7.34961C45.3285 7.44727 45.5124 7.49609 45.75 7.49609C45.9811 7.49609 46.1602 7.44564 46.2871 7.34473C46.4173 7.24056 46.4824 7.10221 46.4824 6.92969H47.2295ZM46.0137 5.86523H46.7607L45.96 6.83203H45.4619L46.0137 5.86523ZM53.5234 11.417C53.5234 12.221 53.3395 12.8688 52.9717 13.3604C52.6038 13.8519 52.1058 14.0977 51.4775 14.0977C50.8363 14.0977 50.3317 13.8942 49.9639 13.4873V16.0312H49.0605V8.7168H49.8857L49.9297 9.30273C50.2975 8.84701 50.8086 8.61914 51.4629 8.61914C52.0977 8.61914 52.599 8.8584 52.9668 9.33691C53.3379 9.81543 53.5234 10.4811 53.5234 11.334V11.417ZM52.6201 11.3145C52.6201 10.7188 52.4932 10.2484 52.2393 9.90332C51.9854 9.55827 51.637 9.38574 51.1943 9.38574C50.6475 9.38574 50.2373 9.62826 49.9639 10.1133V12.6377C50.234 13.1195 50.6475 13.3604 51.2041 13.3604C51.637 13.3604 51.9805 13.1895 52.2344 12.8477C52.4915 12.5026 52.6201 11.9915 52.6201 11.3145ZM59.71 9.52734C59.5732 9.50456 59.4251 9.49316 59.2656 9.49316C58.6732 9.49316 58.2712 9.74544 58.0596 10.25V14H57.1562V8.7168H58.0352L58.0498 9.32715C58.346 8.85514 58.766 8.61914 59.3096 8.61914C59.4854 8.61914 59.6188 8.64193 59.71 8.6875V9.52734ZM63.6113 14C63.5592 13.8958 63.5169 13.7103 63.4844 13.4434C63.0645 13.8796 62.5632 14.0977 61.9805 14.0977C61.4596 14.0977 61.0316 13.9512 60.6963 13.6582C60.3643 13.362 60.1982 12.9876 60.1982 12.5352C60.1982 11.985 60.4066 11.5586 60.8232 11.2559C61.2432 10.9499 61.8324 10.7969 62.5908 10.7969H63.4697V10.3818C63.4697 10.0661 63.3753 9.81543 63.1865 9.62988C62.9977 9.44108 62.7194 9.34668 62.3516 9.34668C62.0293 9.34668 61.7591 9.42806 61.541 9.59082C61.3229 9.75358 61.2139 9.95052 61.2139 10.1816H60.3057C60.3057 9.91797 60.3984 9.66406 60.584 9.41992C60.7728 9.17253 61.0267 8.97721 61.3457 8.83398C61.668 8.69076 62.0212 8.61914 62.4053 8.61914C63.014 8.61914 63.4909 8.77214 63.8359 9.07812C64.181 9.38086 64.36 9.79915 64.373 10.333V12.7646C64.373 13.2497 64.4349 13.6354 64.5586 13.9219V14H63.6113ZM62.1123 13.3115C62.3955 13.3115 62.6641 13.2383 62.918 13.0918C63.1719 12.9453 63.3558 12.7549 63.4697 12.5205V11.4365H62.7617C61.6549 11.4365 61.1016 11.7604 61.1016 12.4082C61.1016 12.6914 61.196 12.9128 61.3848 13.0723C61.5736 13.2318 61.8161 13.3115 62.1123 13.3115ZM69.1191 8.7168L69.1436 9.30273C69.5309 8.84701 70.0534 8.61914 70.7109 8.61914C71.4499 8.61914 71.9528 8.90234 72.2197 9.46875C72.3955 9.21484 72.6234 9.00977 72.9033 8.85352C73.1865 8.69727 73.5202 8.61914 73.9043 8.61914C75.0632 8.61914 75.6523 9.23275 75.6719 10.46V14H74.7686V10.5137C74.7686 10.1361 74.6823 9.85449 74.5098 9.66895C74.3372 9.48014 74.0475 9.38574 73.6406 9.38574C73.3053 9.38574 73.027 9.48665 72.8057 9.68848C72.5843 9.88704 72.4557 10.1556 72.4199 10.4941V14H71.5117V10.5381C71.5117 9.76986 71.1357 9.38574 70.3838 9.38574C69.7913 9.38574 69.3861 9.63802 69.168 10.1426V14H68.2646V8.7168H69.1191ZM80.3008 14C80.2487 13.8958 80.2064 13.7103 80.1738 13.4434C79.7539 13.8796 79.2526 14.0977 78.6699 14.0977C78.1491 14.0977 77.721 13.9512 77.3857 13.6582C77.0537 13.362 76.8877 12.9876 76.8877 12.5352C76.8877 11.985 77.096 11.5586 77.5127 11.2559C77.9326 10.9499 78.5218 10.7969 79.2803 10.7969H80.1592V10.3818C80.1592 10.0661 80.0648 9.81543 79.876 9.62988C79.6872 9.44108 79.4089 9.34668 79.041 9.34668C78.7188 9.34668 78.4486 9.42806 78.2305 9.59082C78.0124 9.75358 77.9033 9.95052 77.9033 10.1816H76.9951C76.9951 9.91797 77.0879 9.66406 77.2734 9.41992C77.4622 9.17253 77.7161 8.97721 78.0352 8.83398C78.3574 8.69076 78.7106 8.61914 79.0947 8.61914C79.7035 8.61914 80.1803 8.77214 80.5254 9.07812C80.8704 9.38086 81.0495 9.79915 81.0625 10.333V12.7646C81.0625 13.2497 81.1243 13.6354 81.248 13.9219V14H80.3008ZM78.8018 13.3115C79.085 13.3115 79.3535 13.2383 79.6074 13.0918C79.8613 12.9453 80.0452 12.7549 80.1592 12.5205V11.4365H79.4512C78.3444 11.4365 77.791 11.7604 77.791 12.4082C77.791 12.6914 77.8854 12.9128 78.0742 13.0723C78.263 13.2318 78.5055 13.3115 78.8018 13.3115ZM80.6475 6.92969C80.6475 7.23893 80.5107 7.48633 80.2373 7.67188C79.9639 7.85742 79.6074 7.9502 79.168 7.9502C78.7253 7.9502 78.3672 7.85742 78.0938 7.67188C77.8203 7.48633 77.6836 7.23893 77.6836 6.92969H78.4258C78.4258 7.10872 78.4893 7.2487 78.6162 7.34961C78.7464 7.44727 78.9303 7.49609 79.168 7.49609C79.3991 7.49609 79.5781 7.44564 79.7051 7.34473C79.8353 7.24056 79.9004 7.10221 79.9004 6.92969H80.6475ZM79.4316 5.86523H80.1787L79.3779 6.83203H78.8799L79.4316 5.86523ZM83.7041 7.4375V8.7168H84.6904V9.41504H83.7041V12.6914C83.7041 12.903 83.748 13.0625 83.8359 13.1699C83.9238 13.2741 84.0736 13.3262 84.2852 13.3262C84.3893 13.3262 84.5326 13.3066 84.7148 13.2676V14C84.4772 14.0651 84.2461 14.0977 84.0215 14.0977C83.6178 14.0977 83.3135 13.9756 83.1084 13.7314C82.9033 13.4873 82.8008 13.1406 82.8008 12.6914V9.41504H81.8389V8.7168H82.8008V7.4375H83.7041Z" fill="white"/>
<path d="M4.32122 39.4672L3.93853 40.391L4.32122 39.4672ZM119.467 35.6788L120.391 36.0615L119.467 35.6788ZM115.679 39.4672L116.061 40.391L115.679 39.4672ZM115.679 0.532843L116.061 -0.391036L115.679 0.532843ZM119.467 4.32122L120.391 3.93853L119.467 4.32122ZM10.5 1H109.5V-1H10.5V1ZM119 10.5V29.5H121V10.5H119ZM109.5 39H10.5V41H109.5V39ZM1 29.5V10.5H-1V29.5H1ZM10.5 39C8.85552 39 7.67224 38.9995 6.73798 38.9357C5.8127 38.8726 5.20494 38.7508 4.7039 38.5433L3.93853 40.391C4.72389 40.7163 5.57473 40.861 6.60184 40.9311C7.61997 41.0005 8.88288 41 10.5 41V39ZM-1 29.5C-1 31.1171 -1.00054 32.38 -0.931075 33.3982C-0.860996 34.4253 -0.716341 35.2761 -0.391036 36.0615L1.45672 35.2961C1.24918 34.7951 1.12742 34.1873 1.06429 33.262C1.00054 32.3278 1 31.1445 1 29.5H-1ZM4.7039 38.5433C3.23373 37.9343 2.06569 36.7663 1.45672 35.2961L-0.391036 36.0615C0.420915 38.0217 1.97831 39.5791 3.93853 40.391L4.7039 38.5433ZM119 29.5C119 31.1445 118.999 32.3278 118.936 33.262C118.873 34.1873 118.751 34.7951 118.543 35.2961L120.391 36.0615C120.716 35.2761 120.861 34.4253 120.931 33.3982C121.001 32.38 121 31.1171 121 29.5H119ZM109.5 41C111.117 41 112.38 41.0005 113.398 40.9311C114.425 40.861 115.276 40.7163 116.061 40.391L115.296 38.5433C114.795 38.7508 114.187 38.8726 113.262 38.9357C112.328 38.9995 111.144 39 109.5 39V41ZM118.543 35.2961C117.934 36.7663 116.766 37.9343 115.296 38.5433L116.061 40.391C118.022 39.5791 119.579 38.0217 120.391 36.0615L118.543 35.2961ZM109.5 1C111.144 1 112.328 1.00054 113.262 1.06429C114.187 1.12742 114.795 1.24918 115.296 1.45672L116.061 -0.391036C115.276 -0.716341 114.425 -0.860996 113.398 -0.931075C112.38 -1.00054 111.117 -1 109.5 -1V1ZM121 10.5C121 8.88289 121.001 7.61997 120.931 6.60184C120.861 5.57473 120.716 4.72389 120.391 3.93853L118.543 4.7039C118.751 5.20494 118.873 5.8127 118.936 6.73798C118.999 7.67225 119 8.85552 119 10.5H121ZM115.296 1.45672C116.766 2.06569 117.934 3.23373 118.543 4.7039L120.391 3.93853C119.579 1.97831 118.022 0.420915 116.061 -0.391036L115.296 1.45672ZM10.5 -1C8.88289 -1 7.61997 -1.00054 6.60184 -0.931075C5.57473 -0.860996 4.72389 -0.716341 3.93853 -0.391036L4.7039 1.45672C5.20494 1.24918 5.8127 1.12742 6.73798 1.06429C7.67225 1.00054 8.85552 1 10.5 1V-1ZM1 10.5C1 8.85552 1.00054 7.67225 1.06429 6.73798C1.12742 5.8127 1.24918 5.20494 1.45672 4.7039L-0.391036 3.93853C-0.716341 4.72389 -0.860996 5.57473 -0.931075 6.60184C-1.00054 7.61997 -1 8.88289 -1 10.5H1ZM3.93853 -0.391036C1.97831 0.420915 0.420915 1.97831 -0.391036 3.93853L1.45672 4.7039C2.06569 3.23373 3.23373 2.06569 4.7039 1.45672L3.93853 -0.391036Z" fill="#A6A6A6"/>
</svg>
